<?xml version="1.0" encoding="UTF-8"?>
<svg id="Capa_1" data-name="Capa 1" xmlns="http://www.w3.org/2000/svg" viewBox="0 0 185.82 187.41">
  <defs>
    <style>
      .cls-1 {
        fill: #fff;
      }
    </style>
  </defs>
  <path class="cls-1" d="M159.33,91.52c-12.49-11.16-25.81-20.16-42.21-26.25,13.8,17.75,13.77,34.74-.05,52.51,16.38-6.08,29.7-15.05,42.25-26.26M64.1,65.78c-10.04,1.61-34.47,17.11-41.73,25.8.22.37.38.84.7,1.12,11.61,10.2,24.32,18.65,38.77,24.32.56.22,1.23.12,2.22.2-13.61-14.42-13.91-36.71.05-51.45M59.6,91.73c-.67,14.24,11.73,30.93,31.16,30.9,17.72-.03,30.99-15.38,30.82-31.32-.17-16.26-13.66-31.02-31.24-30.89-17.55.13-31.28,15.02-30.74,31.32M91.47,128.39c-16.85.35-31.38-4.61-45.23-11.98-10.29-5.47-19.61-12.35-28.17-20.24-4.48-4.14-4.54-5.16,0-9.28,14.89-13.5,31.45-24.13,51.09-29.47,17.93-4.87,35.47-3.52,52.62,3.16,15.61,6.08,29.38,15.15,41.55,26.66.66.62,1.33,1.24,1.92,1.92,1.64,1.91,1.78,2.91-.02,4.68-3.11,3.06-6.31,6.07-9.72,8.78-12.33,9.83-25.73,17.73-40.98,22.25-7.84,2.32-15.76,3.85-23.06,3.51"/>
  <path class="cls-1" d="M73.54,86.58c5.8,3.2,8.71,3.11,12.04-.25,3.01-3.04,2.99-6.84-.09-11.91,10.61-2.68,17.32,2,20.95,8.6,4.07,7.4,2.42,16.01-3.78,21.85-5.7,5.37-15.62,6.19-22.56,1.42-6.17-4.24-9.07-12.45-6.57-19.71"/>
</svg>