<?xml version="1.0" encoding="UTF-8"?>
<svg id="Capa_1" data-name="Capa 1" xmlns="http://www.w3.org/2000/svg" viewBox="0 0 185.82 187.41">
  <defs>
    <style>
      .cls-1 {
        fill: #fff;
      }
    </style>
  </defs>
  <path class="cls-1" d="M136.63,45.32c-4.42,0-8.47-.07-12.53.02-4.15.09-8.34-.38-12.92.41,5.35,8.65,10.47,16.94,15.42,24.94h28.16c-5.97-8.87-11.99-16.92-18.14-25.37M30.91,70.22c3.94.86,21.52,1.02,28.2.29,4.97-8.11,10.03-16.37,15.42-25.18-8.4,0-16.03.02-23.66-.02-1.52,0-2.56.55-3.42,1.76-5.48,7.7-10.99,15.38-16.54,23.15M82.58,140.55c-.76-4.6-22.16-59.24-24.53-63.03-9.2-.7-22.59-.46-26.39.56,16.91,20.75,33.73,41.38,50.93,62.47M126.93,77.37c-8.82,21.52-17.55,42.85-26.22,65.49,9.44-10.15,51.16-61.97,52.8-65.49h-26.58ZM82.77,45.4c-5.71,7.64-14.05,21.72-15.01,25.51,15.32,0,30.54,0,45.77,0,1.35,0,2.7-.07,4.05-.13.14,0,.31-.15.41-.28.09-.12.11-.3.26-.76-5.29-7.93-9.85-16.56-15.34-24.33h-20.15ZM92.42,145.37c9.24-23.1,18.11-45.29,27.13-67.84h-53.74c8.8,22.63,17.49,44.82,26.61,67.84M20.37,73.92c1.96-2.91,3.86-5.88,5.91-8.75,5.32-7.45,10.8-14.79,16.02-22.31,2.24-3.22,4.78-4.55,8.88-4.52,27.87.2,55.74.17,83.62.03,3.83-.02,6.18,1.2,8.35,4.39,6.01,8.83,12.41,17.38,18.65,26.04.59.83,1.13,1.69,1.73,2.51,1.53,2.12,1.24,3.98-.45,5.95-2.43,2.82-4.63,5.85-6.99,8.75-9.96,12.23-19.94,24.46-29.92,36.67-8.48,10.38-16.98,20.74-25.47,31.1-1.72,2.1-3.35,4.28-5.23,6.24-2.28,2.38-3.77,2.28-5.87-.28-7.74-9.45-15.42-18.95-23.13-28.42-8.25-10.13-16.52-20.24-24.78-30.36-6.44-7.88-12.9-15.75-19.31-23.66-.73-.9-1.2-2.01-2.01-3.38"/>
</svg>