<?xml version="1.0" encoding="UTF-8"?>
<svg id="Capa_1" data-name="Capa 1" xmlns="http://www.w3.org/2000/svg" viewBox="0 0 185.82 187.41">
  <defs>
    <style>
      .cls-1 {
        fill: #fff;
      }
    </style>
  </defs>
  <path class="cls-1" d="M97.87,128.64c18.52-2.06,31.43-18.65,30.97-31.62-2.09,0-4.22.17-6.31-.06-1.48-.16-3.04-.48-3.74-2.29-1.03-2.65.32-5.06,3.41-5.36,2.27-.22,4.57-.04,6.84-.04-.31-13.82-13.13-29.81-31.04-31.41-.05,2.3,0,4.59-.18,6.86-.2,2.48-1.99,4.15-4.08,4.06-1.93-.08-3.46-1.54-3.64-3.88-.18-2.27-.04-4.57-.04-6.85-15.16.52-30.27,14.83-31.36,30.88,1.1.1,2.22.25,3.33.3,1.17.05,2.35-.09,3.51.04,2.48.28,4.26,2.08,4.17,4.05-.1,2.02-1.82,3.49-4.48,3.72-.97.09-1.95-.05-2.92.03-1.27.11-2.54.34-3.79.52,1.87,16.21,15.97,29.61,31.18,30.89.11-1.69.15-3.38.36-5.05.16-1.33.3-2.74.83-3.94,1.08-2.42,4.11-2.86,5.71-.77.76.99,1.08,2.45,1.22,3.74.2,1.89.05,3.82.05,6.18M97.86,136.62v12.21c0,6.43.04,12.86-.03,19.29-.02,1.52-.26,3.07-.63,4.56-.38,1.54-1.63,2.03-3.15,2.02-1.46-.01-2.86-.29-3.27-1.86-.43-1.66-.73-3.41-.74-5.12-.07-10.31-.03-20.63-.03-31.14-22.23-3.88-35.43-16.68-39.4-39.19-1.4-.11-2.89-.32-4.38-.33-8.77-.03-17.53,0-26.3-.01-1.36,0-2.75.11-4.08-.1-2.48-.39-3.53-1.68-3.47-3.9.06-2.13,1.2-3.38,3.69-3.74,1.34-.19,2.72-.07,4.08-.07,8.18,0,16.37,0,24.55,0h5.81c3.94-22.42,16.89-35.47,39.5-39.48,0-1.85,0-3.74,0-5.64,0-8.38-.02-16.75,0-25.13,0-1.54.04-3.12.36-4.62.42-1.96,1.78-2.8,3.86-2.73,1.92.06,2.92,1.13,3.28,2.72.33,1.49.31,3.08.32,4.63.03,8.57,0,17.14.03,25.72,0,1.71.16,3.41.24,5.08,22.37,3.93,35.31,16.93,39.25,39.45h5.72c8.57,0,17.14-.03,25.72.03,1.53,0,3.08.24,4.57.57,1.55.34,2.09,1.56,2.12,3.08.04,1.71-.42,3.18-2.25,3.6-1.49.34-3.05.52-4.59.53-8.57.05-17.14.02-25.72.02h-5.58c-3.97,22.74-17.14,35.54-39.5,39.55"/>
  <path class="cls-1" d="M153.26,104.47h6.33c1.16,8.43-7.16,24.54-14.06,32.42-10.58,12.09-23.64,19.86-39.63,22.65-1.59-2.12-.57-4.31-.97-6.67,1.4-.58,2.75-1.29,4.17-1.7,22.1-6.43,36.44-20.6,42.83-42.76.37-1.28.86-2.53,1.33-3.94"/>
  <path class="cls-1" d="M160.1,81.91h-6.63c-.46-1.18-1.12-2.54-1.54-3.98-6.42-22.14-20.69-36.4-42.86-42.76-.75-.21-1.48-.48-2.21-.75-.52-.2-1.03-.45-1.63-.72v-6.28c23.88,1.09,51.67,25.71,54.86,54.49"/>
  <path class="cls-1" d="M27.78,104.45h6.66c1.27,3.59,2.45,7.44,3.98,11.13,7.55,18.22,20.99,29.89,39.82,35.48,1.46.43,2.9.93,4.38,1.4v6.47c-23.29-1.32-51.11-24.62-54.84-54.49"/>
  <path class="cls-1" d="M82.6,27.38v6.52c-25.4,6.4-41.44,22.37-47.95,47.97h-6.35c.83-24.63,27.41-52.77,54.3-54.5"/>
  <path class="cls-1" d="M94.01,79.65c7.79.03,13.52,5.88,13.42,13.7-.09,7.43-5.88,13.27-13.25,13.35-7.65.09-13.78-5.89-13.79-13.45-.01-7.64,5.99-13.64,13.62-13.6"/>
</svg>